# xmcd
#
# Track frame offsets:
#	150
#	16291
#	35552
#	53526
#	67680
#	81906
#	100454
#	116433
#	131823
#	151711
#	165246
#
# Disc length: 2445 seconds
# Revision: 0
# Processed by: cddbd v1.5.2PL0 Copyright (c) Steve Scherf et al.
# Submitted via: dBpowerAMP V12.0
#
DISCID=7b098b0b
DTITLE=Candy Chase - Texas Moon 
DYEAR=2011
DGENRE=Country
TTITLE0=New Me Talking
TTITLE1=Like A chain
TTITLE2=C'mon Eyes
TTITLE3=Fe Te Se Le Bre
TTITLE4=Trying To Say Goodbye
TTITLE5=A Girl Like Me
TTITLE6=Gonna Get My Mambo
TTITLE7=Texas Moon
TTITLE8=Don't Go
TTITLE9=I Thought You Might Follow Me
TTITLE10=I Wanna Make You Mine 
EXTD=
EXTT0=
EXTT1=
EXTT2=
EXTT3=
EXTT4=
EXTT5=
EXTT6=
EXTT7=
EXTT8=
EXTT9=
EXTT10=
PLAYORDER=
